#!OML:ASF F:\VICON\USERDATA\INSTALL\rory3\rory3.ASF
:FULLY-SPECIFIED
:DEGREES
241
root 5.66249 17.8844 14.7732 -3.17885 -0.256015 1.51135
lowerback 10.735 -0.28493 -3.3507
upperback 0.692296 -0.725493 1.05145
thorax -5.24537 -0.267794 3.10146
lowerneck -17.6267 -2.25833 -1.91047
upperneck 15.9065 -2.8122 1.14877
head 7.85935 -1.33935 0.361327
rclavicle 1.73937e-015 6.36111e-015
rhumerus -32.1771 -23.331 -76.6068
rradius 24.6079
rwrist 5.45913
rhand -18.1498 23.6801
rfingers 7.12502
rthumb 8.12575 -6.14367
lclavicle 1.73937e-015 6.36111e-015
lhumerus -28.4663 -2.28245 81.7597
lradius 31.8322
lwrist 4.68665
lhand -25.752 23.0751
lfingers 7.12502
lthumb 0.78528 53.0534
rfemur -29.7562 -1.15436 20.8186
rtibia 57.902
rfoot -6.49483 -7.78122
rtoes 13.614
lfemur -0.157265 -1.54432 -27.2051
ltibia 26.1137
lfoot -17.0374 0.821194
ltoes 0.353789
242
root 5.6615 17.8826 14.9422 -3.06862 -0.372118 1.44335
lowerback 10.7288 -0.283948 -3.28062
upperback 0.589904 -0.71568 1.06852
thorax -5.35102 -0.260694 3.07939
lowerneck -17.0143 -2.21157 -1.84259
upperneck 15.4795 -2.78961 1.23949
head 7.61172 -1.31961 0.390855
rclavicle -8.28684e-015 -1.19271e-015
rhumerus -32.7304 -23.2892 -76.5078
rradius 24.7685
rwrist 5.19481
rhand -18.3865 22.0747
rfingers 7.12502
rthumb 7.89728 -7.75781
lclavicle -8.28684e-015 -1.19271e-015
lhumerus -28.1001 -2.56614 81.5591
lradius 31.8668
lwrist 4.66928
lhand -25.1759 25.9717
lfingers 7.12502
lthumb 1.3417 55.9472
rfemur -30.1342 -0.816378 20.9332
rtibia 55.5149
rfoot -10.3697 -7.86774
rtoes -1.16232
lfemur 0.699973 -1.61187 -27.2356
ltibia 25.3673
lfoot -16.7871 1.51682
ltoes -2.18932
243
root 5.66339 17.8835 15.1189 -3.02146 -0.35231 1.95997
lowerback 10.5797 -0.275149 -3.79395
upperback 0.718261 -0.765168 0.953692
thorax -5.12392 -0.281392 3.25249
lowerneck -17.3809 -2.25109 -1.90141
upperneck 15.6529 -2.84562 1.35251
head 7.73608 -1.33614 0.426888
rclavicle 2.18415e-014 -1.51076e-014
rhumerus -32.9106 -22.6279 -76.8454
rradius 25.3482
rwrist 3.9376
rhand -18.2186 21.3732
rfingers 7.12502
rthumb 8.05934 -8.45309
lclavicle 2.18415e-014 -1.51076e-014
lhumerus -27.28 -2.77844 81.4308
lradius 31.7955
lwrist 4.70963
lhand -26.1656 27.1215
lfingers 7.12502
lthumb 0.385791 57.1009
rfemur -30.3374 -0.765681 20.3394
rtibia 53.0888
rfoot -10.1907 -8.77724
rtoes -1.28299
lfemur 1.77019 -1.55494 -27.8517
ltibia 24.5749
lfoot -17.1251 1.31151
ltoes -1.60599
244
root 5.66742 17.8794 15.2847 -2.91031 -0.315486 2.30754
lowerback 10.5538 -0.330061 -4.1197
upperback 0.813381 -0.877958 0.883359
thorax -4.99638 -0.335219 3.37766
lowerneck -17.9088 -2.27509 -1.79975
upperneck 15.8402 -2.87547 1.23864
head 7.88684 -1.35201 0.363042
rclavicle 1.08586e-014 -3.97569e-015
rhumerus -32.8415 -22.5703 -76.9066
rradius 25.2708
rwrist 3.58453
rhand -18 21.7082
rfingers 7.12502
rthumb 8.27036 -8.10993
lclavicle 1.08586e-014 -3.97569e-015
lhumerus -26.6961 -2.89124 81.2357
lradius 32.1208
lwrist 4.85183
lhand -26.5359 27.8114
lfingers 7.12502
lthumb 0.0281161 57.7912
rfemur -30.6648 -0.716315 19.9514
rtibia 50.639
rfoot -9.84991 -9.61743
rtoes -1.66861
lfemur 2.75928 -1.46871 -28.258
ltibia 23.6276
lfoot -17.2381 1.09074
ltoes -0.0937679
245
root 5.66665 17.8723 15.4503 -2.82074 -0.390248 2.17399
lowerback 10.6034 -0.361767 -4.00142
upperback 0.787662 -0.903791 0.973395
thorax -5.04915 -0.347874 3.41041
lowerneck -17.6556 -2.30552 -1.70373
upperneck 15.6001 -2.89555 0.99181
head 7.75803 -1.38251 0.267034
rclavicle 5.24295e-015 -1.98785e-015
rhumerus -32.916 -23.2569 -76.4559
rradius 24.6143
rwrist 4.08638
rhand -17.7773 22.6207
rfingers 7.12502
rthumb 8.48527 -7.1888
lclavicle 5.24295e-015 -1.98785e-015
lhumerus -26.4703 -3.01528 81.1047
lradius 32.5621
lwrist 5.07807
lhand -26.4189 26.8597
lfingers 7.12502
lthumb 0.141141 56.8394
rfemur -30.852 -0.375317 20.1232
rtibia 48.1101
rfoot -9.40741 -10.6159
rtoes -1.12221
lfemur 3.79284 -1.40051 -28.1247
ltibia 22.6301
lfoot -16.9789 1.05113
ltoes 1.66102
246
root 5.66428 17.8645 15.623 -2.62005 -0.29902 2.55374
lowerback 10.3211 -0.407029 -4.38804
upperback 0.81396 -0.999125 0.925227
thorax -4.84981 -0.392722 3.58619
lowerneck -17.4154 -2.35181 -1.88444
upperneck 15.3529 -2.93372 1.09882
head 7.63977 -1.40262 0.33108
rclavicle -2.74571e-014 3.97569e-015
rhumerus -33.0027 -23.6847 -76.171
rradius 24.2645
rwrist 4.47114
rhand -17.9045 23.3098
rfingers 7.12502
rthumb 8.36247 -6.50466
lclavicle -2.74571e-014 3.97569e-015
lhumerus -26.0463 -2.95842 80.983
lradius 32.7665
lwrist 5.30211
lhand -26.5874 25.4606
lfingers 7.12502
lthumb -0.0215433 55.4404
rfemur -31.0701 -0.294385 19.7292
rtibia 45.5074
rfoot -8.87185 -11.7019
rtoes -0.515073
lfemur 4.71587 -1.44389 -28.5714
ltibia 21.7565
lfoot -17.1774 1.07897
ltoes 0.41191
247
root 5.66273 17.8548 15.799 -2.33265 -0.218238 2.81401
lowerback 10.0168 -0.467351 -4.62294
upperback 0.787767 -1.09591 0.851848
thorax -4.69522 -0.440134 3.64917
lowerneck -17.5915 -2.29592 -1.87389
upperneck 15.5747 -2.88691 1.24019
head 7.74503 -1.36425 0.37865
rclavicle -1.04362e-015 1.19271e-015
rhumerus -33.2148 -23.4693 -76.2368
rradius 24.4087
rwrist 4.18616
rhand -17.9678 23.1243
rfingers 7.12502
rthumb 8.30138 -6.69255
lclavicle -1.04362e-015 1.19271e-015
lhumerus -25.657 -2.7454 80.7195
lradius 33.0168
lwrist 5.02356
lhand -27.0323 25.8376
lfingers 7.12502
lthumb -0.45133 55.8169
rfemur -31.3206 -0.281806 19.4743
rtibia 42.6775
rfoot -7.87574 -12.9616
rtoes -1.47537
lfemur 5.42058 -1.43404 -28.8671
ltibia 21.0234
lfoot -17.1773 1.20915
ltoes -1.19691
248
root 5.65114 17.8477 15.9687 -2.0262 -0.346411 2.52781
lowerback 10.0427 -0.479404 -4.45082
upperback 0.6421 -1.09109 0.961438
thorax -4.86415 -0.432934 3.66897
lowerneck -17.9211 -2.2533 -1.8528
upperneck 15.8426 -2.84076 1.28608
head 7.89081 -1.33392 0.391454
rclavicle 8.27441e-015 -5.1684e-015
rhumerus -33.6842 -23.1534 -76.264
rradius 24.7797
rwrist 3.89401
rhand -17.9025 22.3105
rfingers 7.12502
rthumb 8.36445 -7.50386
lclavicle 8.27441e-015 -5.1684e-015
lhumerus -25.4718 -2.91235 80.5328
lradius 33.4801
lwrist 5.0461
lhand -27.1178 26.7855
lfingers 7.12502
lthumb -0.533864 56.7646
rfemur -31.5399 0.257179 19.8404
rtibia 39.6971
rfoot -6.90581 -14.6772
rtoes -1.16161
lfemur 6.0914 -1.14709 -28.4823
ltibia 20.1591
lfoot -17.1128 1.35492
ltoes -3.43914
249
root 5.63751 17.8493 16.1319 -1.62081 -0.474525 2.25868
lowerback 9.98682 -0.489194 -4.34112
upperback 0.416138 -1.08675 1.08485
thorax -5.07039 -0.422186 3.73823
lowerneck -17.729 -2.25732 -1.85077
upperneck 15.8285 -2.85158 1.29201
head 7.85307 -1.33952 0.393746
rclavicle -3.8763e-015 -1.03368e-014
rhumerus -34.2271 -23.0578 -76.1003
rradius 24.997
rwrist 4.01363
rhand -17.8007 21.5681
rfingers 7.12502
rthumb 8.4627 -8.24238
lclavicle -3.8763e-015 -1.03368e-014
lhumerus -25.31 -3.05873 80.3858
lradius 33.7898
lwrist 5.38861
lhand -26.1556 27.612
lfingers 7.12502
lthumb 0.39549 57.5914
rfemur -31.7069 0.927438 20.1418
rtibia 36.5774
rfoot -6.10405 -16.3783
rtoes -0.606216
lfemur 6.79476 -0.847532 -28.0805
ltibia 19.2087
lfoot -17.1828 1.31105
ltoes -5.45481
250
root 5.63079 17.851 16.3056 -1.38944 -0.452277 2.39826
lowerback 9.78881 -0.512156 -4.52288
upperback 0.345531 -1.12981 1.09088
thorax -5.02604 -0.439036 3.84997
lowerneck -17.4778 -2.28805 -1.91685
upperneck 15.7439 -2.8847 1.31613
head 7.78339 -1.35856 0.411418
rclavicle -1.4238e-014 7.95139e-016
rhumerus -34.5231 -23.6269 -75.6329
rradius 24.7055
rwrist 4.84459
rhand -18.0094 21.6223
rfingers 7.12502
rthumb 8.26124 -8.19613
lclavicle -1.4238e-014 7.95139e-016
lhumerus -25.027 -3.28115 80.3431
lradius 33.8922
lwrist 5.98547
lhand -25.4141 28.5771
lfingers 7.12502
lthumb 1.1116 58.554
rfemur -31.6039 1.30455 19.9556
rtibia 33.5393
rfoot -5.16217 -17.548
rtoes -1.7864
lfemur 7.82103 -0.615137 -28.1377
ltibia 18.0705
lfoot -16.8979 1.14973
ltoes -5.66991
251
root 5.6339 17.8471 16.4896 -1.38388 -0.228462 2.51745
lowerback 9.68043 -0.596445 -4.49222
upperback 0.427551 -1.23443 1.04393
thorax -4.87018 -0.49785 3.79331
lowerneck -17.329 -2.33293 -2.04819
upperneck 15.5184 -2.94628 1.49631
head 7.68887 -1.37929 0.487537
rclavicle -1.59028e-014 0
rhumerus -34.6253 -24.1334 -75.3445
rradius 24.3921
rwrist 5.1318
rhand -17.9641 21.9963
rfingers 7.12502
rthumb 8.30499 -7.82042
lclavicle -1.59028e-014 0
lhumerus -24.611 -3.36675 80.2523
lradius 34.0231
lwrist 6.16582
lhand -25.0335 29.2832
lfingers 7.12502
lthumb 1.47922 59.2578
rfemur -31.2174 1.29137 19.7483
rtibia 30.6799
rfoot -5.015 -18.4595
rtoes -0.332462
lfemur 9.09706 -0.475558 -28.167
ltibia 16.7507
lfoot -16.9133 0.293907
ltoes -6.09711
252
root 5.63621 17.8341 16.6713 -1.25435 0.156697 2.96758
lowerback 9.58806 -0.755049 -4.86762
upperback 0.488983 -1.48581 0.942722
thorax -4.72279 -0.620295 3.92885
lowerneck -17.4773 -2.35533 -2.02434
upperneck 15.4339 -2.97382 1.47224
head 7.68622 -1.39259 0.471334
rclavicle -4.34841e-015 1.94809e-014
rhumerus -34.506 -24.0402 -75.4097
rradius 24.1973
rwrist 5.05915
rhand -17.9536 22.1284
rfingers 7.12502
rthumb 8.31515 -7.68797
lclavicle -4.34841e-015 1.94809e-014
lhumerus -24.252 -3.18042 80.0867
lradius 34.3881
lwrist 5.91302
lhand -25.5148 27.49
lfingers 7.12502
lthumb 1.01441 57.4673
rfemur -31.0432 1.18253 19.1365
rtibia 28.0593
rfoot -5.4568 -19.2363
rtoes 0.629135
lfemur 10.2177 -0.517454 -28.5775
ltibia 15.2972
lfoot -16.2612 -0.398582
ltoes -6.88426
